<svg xmlns="http://www.w3.org/2000/svg" width="1000" height="1000" viewBox="0 0 1000 1000">
  <g id="Group_4" data-name="Group 4" transform="translate(-1915 -6323)">
    <rect id="Rectangle_5" data-name="Rectangle 5" width="1000" height="1000" transform="translate(1915 6323)" fill="none"/>
    <g id="instagram" transform="translate(2156 6561.022)">
      <path id="Path_109" data-name="Path 109" d="M377.837,0h-237.6C62.91,0,0,62.91,0,140.238v237.6c0,77.325,62.91,140.234,140.238,140.234h237.6c77.325,0,140.234-62.91,140.234-140.234v-237.6C518.075,62.91,455.165,0,377.837,0Zm-118.8,400.7c-78.116,0-141.661-63.545-141.661-141.661s63.545-141.661,141.661-141.661S400.7,180.922,400.7,259.038,337.154,400.7,259.038,400.7ZM404.082,150.788a41.86,41.86,0,1,1,41.862-41.86A41.86,41.86,0,0,1,404.082,150.788Zm0,0" fill="#e7d8c9"/>
      <path id="Path_110" data-name="Path 110" d="M256,146.02A109.98,109.98,0,1,0,365.98,256,109.98,109.98,0,0,0,256,146.02Zm0,0" transform="translate(3.038 3.038)" fill="#e7d8c9"/>
      <path id="Path_111" data-name="Path 111" d="M399.344,96.3A11.352,11.352,0,1,0,410.7,107.653,11.352,11.352,0,0,0,399.344,96.3Zm0,0" transform="translate(4.817 1.196)" fill="#e7d8c9"/>
    </g>
  </g>
</svg>
