<svg xmlns="http://www.w3.org/2000/svg" width="1000" height="1000" viewBox="0 0 1000 1000">
  <g id="Group_133" data-name="Group 133" transform="translate(53 -4299)">
    <g id="Group_132" data-name="Group 132">
      <path id="Path_118" data-name="Path 118" d="M500,0A498.042,498.042,0,0,1,823.092,118.4C931.294,210.08,1000,347.017,1000,500c0,276.142-223.858,500-500,500S0,776.142,0,500,223.858,0,500,0Z" transform="translate(-53 4299)" fill="#f3f3f3"/>
    </g>
    <path id="tshirt" d="M463.592,461.5H143.9a8.714,8.714,0,0,1-8.714-8.714V181.771L83.366,238.136a8.714,8.714,0,0,1-12.1.715L5.04,182.015A8.714,8.714,0,0,1,3.881,170L106.067,40.615a8.714,8.714,0,0,1,4.976-3.111l119.8-26.143a8.714,8.714,0,0,1,10.571,8.514,62.325,62.325,0,0,0,124.616,0A8.715,8.715,0,0,1,376.6,11.361L496.393,37.5a8.715,8.715,0,0,1,4.854,2.954L609.986,171.61a8.714,8.714,0,0,1-1.037,12.2l-66.229,56.835a8.714,8.714,0,0,1-11.886-.5l-58.517-59.441V452.789a8.714,8.714,0,0,1-8.723,8.714ZM152.619,444.075H454.878V159.41a8.714,8.714,0,0,1,14.919-6.1l67.728,68.8,53.55-45.968L489.788,53.887,382.8,30.541a79.763,79.763,0,0,1-158.1,0L117.814,53.87,22.722,174.233l53.506,45.907,61.254-66.6a8.714,8.714,0,0,1,15.128,5.9Z" transform="translate(139.998 4562.839)" fill="#323232" stroke="#323232" stroke-width="3"/>
  </g>
</svg>
