<svg xmlns="http://www.w3.org/2000/svg" width="1000" height="1000" viewBox="0 0 1000 1000">
  <g id="Group_135" data-name="Group 135" transform="translate(-5970 -4319)">
    <circle id="Ellipse_8" data-name="Ellipse 8" cx="500" cy="500" r="500" transform="translate(5970 4319)" fill="#f3f3f3"/>
    <g id="Group_121" data-name="Group 121" transform="translate(3239 1777)">
      <path id="tshirt" d="M463.592,461.5H143.9a8.714,8.714,0,0,1-8.714-8.714V181.771L83.366,238.136a8.714,8.714,0,0,1-12.1.715L5.04,182.015A8.714,8.714,0,0,1,3.881,170L106.067,40.615a8.714,8.714,0,0,1,4.976-3.111l119.8-26.143a8.714,8.714,0,0,1,10.571,8.514,62.325,62.325,0,0,0,124.616,0A8.715,8.715,0,0,1,376.6,11.361L496.393,37.5a8.715,8.715,0,0,1,4.854,2.954L609.986,171.61a8.714,8.714,0,0,1-1.037,12.2l-66.229,56.835a8.714,8.714,0,0,1-11.886-.5l-58.517-59.441V452.789a8.714,8.714,0,0,1-8.723,8.714ZM152.619,444.075H454.878V159.41a8.714,8.714,0,0,1,14.919-6.1l67.728,68.8,53.55-45.968L489.788,53.887,382.8,30.541a79.763,79.763,0,0,1-158.1,0L117.814,53.87,22.722,174.233l53.506,45.907,61.254-66.6a8.714,8.714,0,0,1,15.128,5.9Z" transform="translate(2923.998 2848.839)" fill="#323232" stroke="#323232" stroke-width="3"/>
      <line id="Line_10" data-name="Line 10" y1="22" x2="82" transform="translate(3142.5 2849.5)" fill="none" stroke="#323232" stroke-linecap="round" stroke-width="20"/>
      <line id="Line_11" data-name="Line 11" x2="82" y2="22" transform="translate(3228.5 2849.5)" fill="none" stroke="#323232" stroke-linecap="round" stroke-width="20"/>
      <line id="Line_12" data-name="Line 12" y2="30" transform="translate(3228.5 2812.5)" fill="none" stroke="#323232" stroke-linecap="round" stroke-width="22"/>
      <path id="Path_119" data-name="Path 119" d="M-38.045,32.675s-1.287-16.556,9.18-26.163S-10.932-5.753,0-5.753c10.433,0,19.8,2.658,30.183,12.265A35.31,35.31,0,0,1,41.521,32.675c0,7.366-.958,17.945-11.338,27.526S0,71,0,71" transform="translate(3227.5 2738.5)" fill="none" stroke="#323232" stroke-linecap="round" stroke-width="20"/>
    </g>
  </g>
</svg>
